<svg xmlns="http://www.w3.org/2000/svg" viewBox="0 0 900 650">
  <style>path { fill: rgba(0,80,160,0.10); stroke: #0050a0; stroke-width: 1; stroke-linejoin: round; }</style>
  <path id="bezirk-affoltern" d="M 200.0,328.2 L 196.7,324.2 L 196.4,313.7 L 190.6,303.4 L 194.3,304.7 L 208.2,297.2 L 209.7,290.4 L 217.1,283.6 L 219.3,276.8 L 222.6,276.7 L 219.8,270.9 L 220.8,267.9 L 225.9,268.8 L 230.6,264.9 L 237.8,269.8 L 240.3,275.6 L 239.7,283.9 L 243.8,292.3 L 242.4,305.9 L 244.4,307.7 L 241.3,314.1 L 244.3,315.3 L 246.1,313.2 L 247.5,317.5 L 253.7,317.8 L 274.6,345.2 L 272.1,346.9 L 256.7,343.2 L 253.7,343.8 L 253.1,346.5 L 244.9,345.4 L 240.9,349.7 L 227.7,351.9 L 226.3,349.0 L 222.5,348.9 L 213.6,342.0 L 205.1,343.1 L 200.0,328.2 Z"/>
  <path id="bezirk-andelfingen" d="M 354.3,123.2 L 354.6,133.8 L 357.2,138.6 L 349.1,134.0 L 345.6,136.5 L 342.1,133.5 L 340.4,135.6 L 330.7,130.3 L 331.0,134.2 L 326.9,137.7 L 327.5,139.9 L 323.6,141.2 L 324.5,143.8 L 319.1,148.9 L 317.2,143.9 L 312.8,141.5 L 304.6,143.8 L 305.4,151.2 L 303.5,151.8 L 306.5,153.4 L 298.6,162.4 L 292.5,156.2 L 288.7,157.5 L 283.1,154.9 L 280.9,148.2 L 273.4,145.7 L 273.0,142.6 L 269.0,141.3 L 270.9,134.3 L 274.6,132.5 L 273.8,125.2 L 280.7,121.2 L 281.2,116.1 L 285.5,111.0 L 281.5,93.2 L 287.0,87.9 L 289.4,92.6 L 284.7,95.9 L 290.1,96.6 L 295.9,89.8 L 293.1,84.7 L 287.1,81.3 L 286.1,77.2 L 289.1,72.3 L 291.4,74.3 L 294.9,72.6 L 294.2,64.5 L 301.4,62.8 L 313.7,68.5 L 313.2,73.5 L 317.0,76.3 L 318.5,84.4 L 321.9,89.3 L 330.9,94.1 L 346.2,93.4 L 347.8,96.0 L 355.6,89.9 L 363.1,88.0 L 365.9,80.1 L 373.3,80.5 L 373.1,87.9 L 382.6,91.2 L 381.8,98.8 L 376.7,102.7 L 377.1,108.8 L 373.0,111.1 L 372.2,118.3 L 366.0,116.9 L 366.5,113.4 L 354.4,108.2 L 351.3,108.9 L 347.8,105.6 L 347.2,111.3 L 344.4,114.2 L 348.5,119.0 L 348.3,123.6 L 354.3,123.2 Z"/>
  <path id="bezirk-buelach" d="M 263.7,219.7 L 265.3,217.4 L 259.6,209.7 L 260.8,206.2 L 259.2,205.3 L 263.2,198.3 L 258.3,193.4 L 259.7,192.2 L 256.8,185.9 L 251.7,183.7 L 251.9,180.9 L 246.6,181.6 L 244.2,177.9 L 237.5,177.5 L 233.7,179.8 L 231.2,174.3 L 235.3,171.4 L 235.3,160.2 L 239.1,152.0 L 226.8,142.8 L 222.1,145.3 L 220.1,143.8 L 225.7,139.8 L 223.7,135.5 L 237.1,130.3 L 234.5,126.2 L 224.9,128.4 L 222.1,125.9 L 220.4,117.6 L 225.6,116.7 L 230.3,109.9 L 243.1,108.6 L 242.7,104.8 L 246.0,105.1 L 247.0,98.6 L 256.2,100.4 L 256.4,103.4 L 264.8,104.4 L 267.0,109.1 L 269.8,108.8 L 272.0,111.7 L 268.5,113.1 L 267.1,119.3 L 263.7,122.6 L 254.9,126.7 L 254.1,129.6 L 257.0,132.0 L 254.7,133.7 L 259.8,134.4 L 257.6,136.9 L 263.5,147.2 L 269.9,141.3 L 273.9,143.5 L 273.4,145.7 L 280.9,148.2 L 283.1,154.9 L 288.7,157.5 L 286.0,164.7 L 294.1,167.8 L 291.9,170.3 L 296.6,175.0 L 299.2,173.6 L 300.2,178.0 L 307.7,178.6 L 310.0,183.9 L 305.8,187.6 L 307.7,193.5 L 306.2,195.8 L 315.4,201.9 L 317.8,206.4 L 310.9,209.5 L 309.7,218.5 L 308.0,218.4 L 309.0,225.9 L 297.8,221.9 L 297.4,219.7 L 294.1,220.9 L 292.9,223.7 L 296.0,232.9 L 293.3,234.1 L 289.8,233.1 L 284.2,235.8 L 271.4,231.2 L 271.7,226.1 L 267.1,228.7 L 263.2,225.6 L 263.7,219.7 Z"/>
  <path id="bezirk-dielsdorf" d="M 178.6,172.5 L 185.5,171.1 L 188.3,162.0 L 192.6,163.2 L 193.3,159.7 L 197.5,158.1 L 196.0,154.6 L 197.4,155.8 L 200.5,151.0 L 203.2,151.2 L 201.9,146.4 L 203.8,139.7 L 223.7,135.5 L 225.7,139.8 L 220.1,143.8 L 222.1,145.3 L 226.8,142.8 L 239.5,153.0 L 235.3,160.2 L 236.7,165.8 L 235.0,172.2 L 231.2,174.3 L 233.7,179.8 L 237.5,177.5 L 244.2,177.9 L 246.6,181.6 L 251.9,180.9 L 251.7,183.7 L 256.8,185.9 L 259.7,192.2 L 258.3,193.4 L 263.2,198.3 L 259.2,205.3 L 260.8,206.2 L 259.6,209.7 L 265.3,217.4 L 263.2,219.7 L 244.9,219.6 L 239.8,217.4 L 232.6,220.3 L 235.1,224.7 L 226.0,227.2 L 200.7,216.6 L 188.5,217.2 L 188.7,205.3 L 180.5,198.6 L 184.7,195.4 L 183.8,189.5 L 179.4,189.9 L 177.3,180.0 L 179.4,177.8 L 177.0,177.0 L 178.6,172.5 Z"/>
  <path id="bezirk-dietikon" d="M 219.3,276.8 L 210.8,282.4 L 201.0,281.4 L 202.9,275.7 L 197.2,269.8 L 199.6,264.9 L 197.7,259.3 L 199.0,256.0 L 195.7,255.5 L 194.0,251.7 L 194.1,241.7 L 179.1,236.7 L 187.7,235.9 L 187.6,228.3 L 192.1,225.6 L 190.1,221.4 L 184.9,220.1 L 185.1,218.1 L 200.7,216.6 L 217.4,222.2 L 219.3,225.9 L 229.4,226.1 L 225.4,230.1 L 229.4,230.9 L 229.8,235.7 L 225.2,236.2 L 224.1,239.0 L 227.6,240.9 L 224.0,240.9 L 225.1,243.5 L 221.2,248.5 L 216.6,249.7 L 226.4,253.5 L 223.7,257.5 L 231.4,261.9 L 233.8,265.9 L 228.4,265.5 L 225.9,268.8 L 221.0,267.7 L 219.8,270.9 L 222.6,276.7 L 219.3,276.8 Z"/>
  <path id="bezirk-hinwil" d="M 352.1,268.0 L 358.3,265.4 L 368.0,273.4 L 380.8,274.9 L 383.7,274.0 L 380.0,270.0 L 386.9,270.0 L 394.3,265.1 L 396.5,258.2 L 407.4,266.6 L 413.4,264.9 L 420.5,269.2 L 420.1,262.6 L 423.6,262.5 L 433.9,252.4 L 437.2,254.6 L 441.2,265.5 L 446.3,266.2 L 446.9,273.8 L 449.6,274.9 L 448.7,281.3 L 452.1,285.9 L 447.7,293.3 L 439.6,294.9 L 436.2,302.2 L 429.6,304.4 L 433.0,309.5 L 436.2,309.1 L 429.4,321.9 L 403.2,326.0 L 401.6,330.2 L 397.6,331.2 L 393.7,326.6 L 390.6,329.0 L 382.7,326.3 L 373.0,329.0 L 366.7,325.9 L 364.2,319.4 L 360.2,316.5 L 347.2,316.3 L 341.2,308.6 L 344.0,305.3 L 338.5,301.5 L 344.9,299.2 L 345.0,295.4 L 340.3,292.2 L 345.5,286.9 L 345.1,284.6 L 355.4,281.0 L 351.4,277.8 L 353.6,273.0 L 350.6,270.4 L 352.1,268.0 Z"/>
  <path id="bezirk-horgen" d="M 334.6,354.9 L 334.6,354.9 Z M 332.9,355.2 L 328.4,356.0 L 318.8,366.5 L 319.4,372.3 L 323.3,375.4 L 323.7,378.8 L 312.1,381.0 L 310.1,380.2 L 309.9,374.6 L 301.4,375.5 L 294.1,373.2 L 295.6,369.1 L 288.9,355.8 L 285.7,353.9 L 282.7,356.1 L 280.7,349.8 L 275.5,350.5 L 274.5,344.2 L 269.6,340.7 L 253.7,317.8 L 247.5,317.5 L 246.1,313.2 L 244.3,315.3 L 241.3,314.1 L 244.4,307.7 L 242.4,305.9 L 243.8,292.3 L 240.8,285.5 L 249.8,283.1 L 258.3,276.4 L 265.8,295.4 L 279.6,318.7 L 297.0,327.1 L 305.9,327.7 L 310.5,334.9 L 330.1,349.8 L 332.9,355.2 Z"/>
  <path id="bezirk-meilen" d="M 267.6,270.1 L 277.3,266.0 L 284.6,267.3 L 294.1,265.2 L 296.2,270.7 L 303.5,275.8 L 303.5,279.7 L 307.5,283.8 L 309.0,295.1 L 323.2,310.9 L 330.3,311.7 L 332.8,307.1 L 337.4,304.7 L 342.2,305.5 L 343.8,307.6 L 341.2,308.6 L 347.2,316.3 L 360.2,316.5 L 364.2,319.4 L 366.7,325.9 L 373.0,329.0 L 365.5,336.6 L 342.5,337.1 L 316.6,321.7 L 295.8,314.6 L 289.6,310.3 L 274.2,289.5 L 267.6,270.1 Z"/>
  <path id="bezirk-pfaeffikon" d="M 352.1,268.0 L 349.7,262.1 L 351.0,258.1 L 337.9,245.4 L 340.8,245.6 L 339.7,243.3 L 341.7,242.4 L 334.2,239.5 L 332.4,241.5 L 319.7,230.6 L 316.7,231.7 L 308.9,225.9 L 308.0,218.4 L 309.7,218.5 L 310.9,209.5 L 317.7,206.6 L 314.9,202.5 L 320.6,197.8 L 329.9,198.2 L 329.5,207.4 L 333.7,208.4 L 335.0,201.6 L 339.8,201.3 L 341.5,203.5 L 342.4,200.4 L 348.3,201.5 L 351.3,197.1 L 352.6,200.9 L 366.7,207.8 L 364.1,213.8 L 368.0,214.0 L 371.2,219.2 L 373.2,219.7 L 372.5,216.5 L 376.3,215.0 L 381.3,218.7 L 384.2,214.2 L 388.8,213.9 L 390.9,222.7 L 392.8,221.3 L 393.9,225.2 L 402.0,226.4 L 395.0,228.1 L 394.0,230.0 L 397.5,232.7 L 407.6,231.4 L 413.3,237.1 L 424.4,238.5 L 434.0,246.7 L 432.4,250.0 L 433.9,252.4 L 428.3,258.9 L 419.8,263.1 L 420.5,269.2 L 413.4,264.9 L 407.4,266.6 L 396.5,258.2 L 394.3,265.1 L 386.9,270.0 L 380.0,270.0 L 383.7,274.0 L 380.8,274.9 L 368.0,273.4 L 358.3,265.4 L 352.1,268.0 Z"/>
  <path id="bezirk-uster" d="M 352.1,268.0 L 350.6,270.4 L 353.6,273.0 L 351.4,277.8 L 355.4,281.0 L 347.1,282.8 L 340.3,292.2 L 345.0,295.4 L 344.9,299.2 L 338.5,301.5 L 344.0,305.4 L 337.4,304.7 L 332.8,307.1 L 330.3,311.7 L 324.9,312.1 L 309.0,295.1 L 307.5,283.8 L 303.5,279.7 L 303.5,275.8 L 296.2,270.7 L 293.2,261.9 L 289.7,260.9 L 290.7,257.0 L 285.9,256.6 L 278.7,247.7 L 280.2,246.5 L 275.8,244.5 L 278.1,240.5 L 281.7,240.0 L 281.5,234.3 L 286.0,235.7 L 296.0,232.9 L 292.9,223.7 L 297.4,219.7 L 297.8,221.9 L 315.3,228.8 L 316.7,231.7 L 319.7,230.6 L 332.4,241.5 L 334.2,239.5 L 341.7,242.4 L 339.7,243.3 L 340.8,245.6 L 337.9,245.4 L 351.0,258.1 L 349.7,262.1 L 352.1,268.0 Z"/>
  <path id="bezirk-winterthur" d="M 354.3,123.2 L 373.6,129.0 L 371.4,130.6 L 373.7,131.2 L 374.2,135.9 L 384.7,134.8 L 388.0,136.1 L 388.2,139.6 L 393.3,140.6 L 393.4,142.3 L 383.2,145.2 L 388.9,159.1 L 406.2,162.4 L 407.6,161.0 L 414.1,164.1 L 411.6,178.2 L 411.7,185.4 L 413.8,187.3 L 408.4,189.4 L 406.5,193.5 L 418.7,209.2 L 416.0,211.6 L 417.8,214.9 L 429.3,217.6 L 418.2,219.3 L 421.3,221.7 L 420.9,227.2 L 415.8,237.1 L 410.2,235.5 L 407.6,231.4 L 397.8,232.8 L 394.4,230.4 L 395.0,228.1 L 402.0,226.4 L 393.9,225.2 L 392.8,221.3 L 390.9,222.7 L 388.8,213.9 L 384.2,214.2 L 381.3,218.7 L 376.3,215.0 L 372.5,216.5 L 373.2,219.7 L 371.2,219.2 L 368.0,214.0 L 364.1,213.8 L 366.7,207.8 L 352.6,200.9 L 351.3,197.1 L 348.3,201.5 L 342.4,200.4 L 341.5,203.5 L 339.8,201.3 L 335.0,201.6 L 333.7,208.4 L 329.5,207.4 L 329.3,197.9 L 320.6,197.8 L 316.1,201.8 L 312.2,201.1 L 306.2,195.8 L 307.5,189.4 L 305.8,187.6 L 310.0,183.9 L 308.8,180.0 L 300.2,178.0 L 299.2,173.6 L 296.6,175.0 L 291.9,170.3 L 294.1,167.8 L 286.0,164.7 L 288.7,157.4 L 292.5,156.2 L 298.6,162.4 L 304.6,155.8 L 306.5,153.4 L 303.4,151.2 L 305.4,151.2 L 305.0,143.5 L 312.4,141.4 L 317.2,143.9 L 319.1,148.9 L 322.7,146.7 L 323.6,141.2 L 327.5,139.9 L 331.2,130.1 L 337.9,134.8 L 340.4,135.6 L 342.1,133.5 L 345.6,136.5 L 349.1,134.0 L 357.2,138.6 L 354.6,133.8 L 354.3,123.2 Z"/>
  <path id="bezirk-zuerich" d="M 240.8,285.5 L 238.5,270.7 L 231.4,261.9 L 223.7,257.5 L 226.4,253.5 L 216.6,249.7 L 221.2,248.5 L 225.1,243.5 L 224.0,240.9 L 227.6,240.9 L 224.1,239.0 L 225.2,236.2 L 229.8,235.7 L 229.4,230.9 L 225.7,230.7 L 225.9,227.9 L 229.7,224.8 L 235.1,224.7 L 233.2,219.5 L 240.3,217.4 L 244.9,219.6 L 263.7,219.7 L 263.2,225.6 L 267.1,228.7 L 271.7,226.1 L 271.4,231.2 L 282.1,234.2 L 281.7,240.0 L 278.1,240.5 L 275.9,244.9 L 277.5,243.8 L 280.2,246.5 L 278.7,247.7 L 285.9,256.6 L 290.7,257.0 L 289.7,260.9 L 293.2,261.9 L 294.4,265.0 L 284.6,267.3 L 277.3,266.0 L 268.2,269.6 L 249.8,283.1 L 240.8,285.5 Z"/>
  <path id="kanton-glarus" d="M 430.3,523.7 L 442.5,519.6 L 439.1,512.3 L 442.2,503.5 L 446.2,499.9 L 440.0,498.5 L 436.7,494.1 L 434.9,495.5 L 429.0,486.5 L 433.1,483.5 L 431.4,484.1 L 427.5,477.6 L 422.8,474.7 L 419.4,465.8 L 411.8,461.9 L 416.4,459.8 L 416.2,453.0 L 424.5,453.2 L 435.9,446.6 L 441.5,430.6 L 448.2,425.0 L 438.5,420.3 L 446.1,413.7 L 447.1,407.5 L 443.4,403.4 L 444.4,394.7 L 459.8,373.9 L 461.1,372.5 L 488.4,398.6 L 518.3,397.5 L 542.0,402.4 L 540.4,417.9 L 542.5,421.9 L 542.1,434.4 L 535.1,444.6 L 519.2,452.7 L 531.3,460.0 L 535.5,458.8 L 537.9,460.6 L 550.3,454.7 L 562.3,461.7 L 568.3,478.8 L 565.5,486.5 L 566.6,500.6 L 562.5,503.0 L 562.3,508.8 L 568.5,515.0 L 569.5,519.4 L 564.0,530.6 L 558.1,532.1 L 548.2,545.5 L 541.2,549.5 L 525.8,547.5 L 527.5,551.0 L 522.4,553.2 L 520.3,558.2 L 507.9,564.9 L 504.7,563.7 L 500.3,552.8 L 487.1,550.2 L 478.6,556.1 L 478.8,565.2 L 475.2,568.1 L 466.4,585.5 L 462.6,588.3 L 438.2,592.0 L 427.1,597.1 L 421.0,594.6 L 421.3,588.3 L 404.8,587.3 L 406.8,577.7 L 402.2,570.0 L 412.9,565.5 L 418.5,558.9 L 429.5,556.1 L 439.4,550.1 L 438.3,535.1 L 433.9,531.8 L 430.3,523.7 Z"/>
  <path id="kanton-luzern" d="M 40.7,602.6 L 31.7,601.0 L 18.3,605.8 L 14.2,609.6 L 9.5,608.5 L 6.2,603.6 L -0.0,600.2 L -3.2,591.8 L -11.1,585.2 L -33.8,572.9 L -38.0,564.6 L -37.1,556.7 L -42.5,552.5 L -42.8,545.3 L -35.5,541.6 L -31.7,535.7 L -32.4,529.0 L -38.2,526.7 L -35.7,521.0 L -24.5,514.8 L -17.0,514.9 L -14.4,507.9 L -9.8,505.4 L -9.6,498.8 L -3.5,494.5 L -4.5,489.5 L -0.7,487.1 L -2.5,479.5 L 0.9,473.9 L -1.8,471.8 L -9.3,473.5 L -13.7,469.7 L -22.9,472.3 L -27.0,458.1 L -38.4,446.5 L -31.8,423.2 L -35.3,417.8 L -34.7,410.9 L -37.7,409.4 L -38.2,405.0 L -29.8,399.5 L -28.1,392.2 L -34.3,382.3 L -31.1,372.8 L -34.3,366.9 L -41.5,361.2 L -47.0,346.7 L -51.5,342.8 L -51.2,337.4 L -49.2,335.7 L -44.2,337.7 L -19.4,330.8 L -9.0,335.6 L 3.4,324.8 L -1.1,317.9 L -1.5,312.5 L 14.4,311.7 L 18.1,308.5 L 27.5,321.6 L 27.0,330.7 L 32.9,332.8 L 47.8,329.2 L 45.8,323.2 L 51.1,324.5 L 58.8,319.6 L 63.5,321.2 L 68.0,330.5 L 74.7,332.4 L 79.1,329.2 L 96.9,325.1 L 99.4,328.5 L 97.4,332.9 L 88.5,334.5 L 92.7,340.1 L 96.5,340.6 L 97.3,343.9 L 101.1,343.7 L 110.1,341.5 L 109.8,331.6 L 116.5,325.9 L 120.4,313.3 L 126.4,314.0 L 126.4,310.1 L 133.6,305.1 L 134.9,307.9 L 142.3,308.1 L 151.8,314.4 L 149.3,317.7 L 149.9,321.5 L 156.8,329.9 L 160.2,347.7 L 162.7,348.2 L 165.0,358.6 L 169.1,365.1 L 169.0,371.0 L 177.3,382.8 L 179.0,389.1 L 184.5,390.9 L 185.1,393.1 L 197.9,394.2 L 200.9,392.3 L 203.4,403.2 L 217.3,398.0 L 219.6,408.5 L 230.8,400.8 L 236.7,408.3 L 236.4,416.4 L 229.0,412.8 L 227.9,409.2 L 217.5,407.9 L 213.1,410.1 L 199.9,420.3 L 198.7,428.6 L 190.6,434.5 L 191.4,439.5 L 195.2,440.6 L 209.2,437.0 L 213.7,438.4 L 239.7,461.3 L 245.2,462.9 L 244.2,472.3 L 227.8,478.6 L 225.4,478.0 L 225.8,470.4 L 207.8,465.7 L 207.0,477.1 L 194.1,475.5 L 189.2,477.0 L 188.4,465.4 L 181.7,464.1 L 166.8,482.5 L 160.0,476.2 L 149.7,477.0 L 146.8,479.2 L 136.6,477.1 L 127.1,484.3 L 124.4,480.8 L 120.2,480.4 L 115.8,487.2 L 120.9,492.5 L 119.7,494.3 L 108.8,495.6 L 102.3,492.8 L 88.1,499.5 L 86.4,504.0 L 92.4,512.4 L 79.2,522.2 L 69.6,539.2 L 66.8,536.4 L 67.7,530.5 L 61.7,528.3 L 56.4,536.0 L 50.8,538.0 L 49.6,557.8 L 45.4,560.8 L 44.7,565.6 L 40.1,568.8 L 38.6,573.3 L 48.4,590.2 L 48.1,593.2 L 44.2,595.8 L 44.7,599.2 L 40.7,602.6 Z"/>
  <path id="kanton-schaffhausen" d="M 267.1,119.3 L 275.6,121.3 L 280.1,115.3 L 281.1,120.4 L 273.8,125.2 L 274.6,132.5 L 270.9,134.3 L 268.8,141.8 L 263.7,147.3 L 257.6,136.9 L 259.8,134.4 L 254.7,133.7 L 257.0,132.0 L 254.1,129.6 L 254.9,126.7 L 267.1,119.3 Z M 404.0,86.3 L 399.6,85.6 L 396.4,89.2 L 392.6,88.6 L 391.0,87.4 L 394.9,82.9 L 389.1,80.6 L 386.4,75.9 L 377.8,72.6 L 369.2,74.2 L 370.3,65.3 L 375.4,63.5 L 369.9,61.2 L 368.3,57.0 L 357.5,55.4 L 357.9,48.1 L 362.5,46.6 L 364.3,43.2 L 370.6,43.4 L 369.5,38.9 L 373.9,36.7 L 376.3,41.4 L 373.1,44.9 L 382.5,48.9 L 379.3,51.9 L 389.9,52.3 L 392.2,57.5 L 402.9,57.1 L 403.2,63.1 L 398.7,64.0 L 398.7,60.4 L 393.6,60.9 L 396.3,63.9 L 393.1,70.7 L 397.5,71.2 L 403.2,77.2 L 404.0,86.3 Z M 311.1,68.0 L 302.2,62.8 L 294.2,64.5 L 294.9,72.6 L 291.4,74.3 L 289.1,72.3 L 286.0,78.1 L 286.2,76.1 L 282.4,75.7 L 280.3,79.3 L 273.5,82.4 L 267.8,80.2 L 267.3,77.3 L 262.3,78.0 L 256.9,80.3 L 257.7,85.2 L 254.1,81.4 L 251.2,83.0 L 254.6,89.4 L 253.3,91.8 L 236.5,91.1 L 236.5,94.0 L 228.4,89.3 L 229.7,92.3 L 226.7,93.8 L 229.8,95.3 L 227.8,96.1 L 223.5,90.2 L 224.5,84.9 L 220.7,87.6 L 215.3,86.9 L 205.9,79.2 L 200.9,79.5 L 198.3,73.6 L 204.7,69.1 L 197.6,60.7 L 203.1,53.4 L 213.8,48.9 L 215.4,45.8 L 219.6,46.1 L 220.6,41.6 L 218.6,41.1 L 217.8,35.6 L 232.8,17.0 L 237.9,17.3 L 243.9,14.2 L 248.3,17.5 L 251.0,13.1 L 262.6,9.1 L 267.0,13.2 L 273.3,10.9 L 272.3,6.2 L 266.6,4.4 L 269.2,-5.0 L 272.5,0.2 L 277.9,-1.6 L 280.1,0.8 L 283.6,-1.8 L 291.4,1.0 L 293.0,3.1 L 289.9,9.5 L 293.5,13.5 L 291.8,19.2 L 295.4,24.2 L 302.8,21.2 L 306.5,15.8 L 304.4,15.4 L 303.3,5.5 L 305.0,0.9 L 308.2,-0.3 L 308.4,4.9 L 318.8,8.0 L 322.1,15.8 L 319.9,17.5 L 322.2,24.8 L 325.0,26.4 L 333.3,20.6 L 339.1,22.4 L 345.2,28.6 L 344.5,31.8 L 337.5,32.3 L 332.0,41.6 L 335.0,46.6 L 343.0,49.8 L 339.4,63.8 L 335.0,65.0 L 334.8,62.5 L 332.1,61.7 L 328.4,50.8 L 321.1,54.4 L 318.9,52.1 L 311.6,51.5 L 316.8,60.6 L 313.3,64.2 L 309.0,64.6 L 311.1,68.0 Z"/>
  <path id="kanton-schwyz" d="M 430.3,523.7 L 403.6,538.5 L 397.8,538.7 L 394.5,544.2 L 392.0,540.8 L 392.4,527.9 L 386.8,530.9 L 383.2,524.0 L 384.1,516.7 L 375.7,510.8 L 365.6,517.4 L 361.3,515.8 L 358.2,510.8 L 343.5,516.2 L 334.9,524.5 L 330.5,525.3 L 326.5,521.1 L 327.3,516.0 L 324.0,507.5 L 313.5,509.2 L 293.1,504.1 L 285.2,504.6 L 285.1,486.5 L 282.0,481.8 L 275.6,479.9 L 258.1,488.1 L 237.9,490.0 L 224.2,485.3 L 225.4,478.0 L 232.0,477.9 L 243.4,473.3 L 245.4,463.2 L 239.7,461.3 L 213.7,438.4 L 209.2,437.0 L 195.2,440.6 L 191.4,439.5 L 190.7,434.1 L 198.7,428.6 L 199.9,420.3 L 203.7,416.2 L 217.5,407.9 L 227.9,409.2 L 229.0,412.8 L 249.0,422.5 L 266.8,420.2 L 268.2,427.8 L 287.1,419.8 L 301.4,419.8 L 309.5,407.7 L 314.8,407.1 L 314.3,405.1 L 319.1,401.6 L 321.6,396.0 L 320.4,391.5 L 327.6,386.2 L 323.3,375.4 L 319.4,372.3 L 318.8,366.5 L 328.9,355.6 L 331.5,356.7 L 344.9,350.1 L 368.1,343.6 L 387.8,352.1 L 430.9,346.3 L 445.6,346.8 L 447.4,349.4 L 445.2,349.9 L 443.5,358.1 L 440.0,357.3 L 442.0,369.2 L 450.2,366.9 L 460.8,372.9 L 444.4,394.7 L 443.4,403.4 L 447.1,407.5 L 446.1,413.7 L 441.0,416.4 L 438.5,421.5 L 448.2,425.0 L 441.5,430.6 L 435.9,446.6 L 424.5,453.2 L 416.2,453.0 L 416.4,459.8 L 411.8,461.9 L 419.4,465.8 L 422.8,474.7 L 427.5,477.6 L 431.4,484.1 L 433.1,483.5 L 429.0,486.5 L 434.9,495.5 L 436.7,494.1 L 440.0,498.5 L 446.2,499.9 L 442.2,503.5 L 439.1,512.3 L 442.5,519.6 L 430.3,523.7 Z"/>
  <path id="kanton-stgallen" d="M 613.9,171.5 L 615.8,173.6 L 613.9,171.5 Z M 667.3,445.2 L 683.0,471.2 L 698.0,489.9 L 686.9,493.0 L 686.0,502.4 L 680.0,503.5 L 676.3,511.5 L 672.1,514.3 L 668.2,523.2 L 668.6,526.1 L 672.7,528.2 L 663.6,535.5 L 663.8,543.0 L 657.9,543.8 L 657.2,550.6 L 655.5,551.6 L 642.9,541.7 L 626.1,536.9 L 609.2,536.5 L 607.2,534.3 L 598.6,534.9 L 587.7,531.3 L 580.1,531.1 L 575.7,533.6 L 567.8,525.8 L 568.5,515.0 L 562.3,508.8 L 562.5,503.0 L 566.6,500.6 L 565.5,486.5 L 568.3,478.8 L 562.3,461.7 L 550.3,454.7 L 537.9,460.6 L 535.5,458.8 L 531.3,460.0 L 519.2,452.7 L 535.1,444.6 L 542.1,434.4 L 542.5,421.9 L 540.4,417.9 L 542.0,402.4 L 518.3,397.5 L 488.4,398.6 L 456.1,369.1 L 449.8,366.9 L 442.0,369.2 L 440.0,357.3 L 443.5,358.1 L 445.2,349.9 L 447.4,349.4 L 445.6,346.8 L 430.9,346.3 L 387.8,352.1 L 381.0,350.2 L 374.7,345.0 L 369.1,333.7 L 372.1,329.2 L 382.7,326.3 L 390.6,329.0 L 393.7,326.6 L 397.6,331.2 L 401.6,330.2 L 403.2,326.0 L 429.4,321.9 L 436.2,309.1 L 433.0,309.5 L 429.6,304.4 L 436.2,302.2 L 439.6,294.9 L 447.7,293.3 L 450.5,288.9 L 452.1,285.9 L 448.7,281.3 L 449.6,274.9 L 446.9,273.8 L 446.3,266.2 L 441.2,265.5 L 434.4,251.1 L 440.0,246.1 L 443.9,246.5 L 448.0,238.4 L 446.5,235.2 L 448.4,231.6 L 453.7,231.3 L 456.2,224.7 L 453.2,220.3 L 458.5,219.0 L 458.2,217.1 L 463.9,218.1 L 468.4,213.2 L 470.2,215.8 L 474.0,214.6 L 473.6,216.9 L 475.4,213.3 L 486.1,210.5 L 480.8,206.5 L 470.8,203.8 L 471.6,198.3 L 462.3,195.0 L 463.9,193.2 L 460.3,189.7 L 464.1,184.5 L 471.1,185.2 L 477.1,181.0 L 483.2,186.0 L 486.0,183.0 L 494.8,181.3 L 498.1,188.8 L 508.2,187.8 L 510.6,190.6 L 516.4,187.1 L 526.8,185.9 L 529.2,178.5 L 532.9,176.1 L 534.9,181.8 L 538.1,180.1 L 538.9,183.6 L 550.7,184.8 L 549.2,188.9 L 552.0,191.0 L 557.4,187.7 L 566.0,190.2 L 568.8,193.7 L 574.3,193.6 L 582.0,188.6 L 589.7,192.0 L 599.4,183.9 L 597.9,178.2 L 593.8,179.5 L 593.9,175.3 L 597.5,172.8 L 591.7,169.2 L 589.3,173.0 L 581.9,175.1 L 576.6,171.5 L 581.6,172.5 L 582.5,166.2 L 591.5,162.8 L 595.9,165.3 L 598.4,159.6 L 602.6,161.6 L 607.6,159.8 L 609.4,166.6 L 615.0,166.9 L 610.5,173.7 L 607.0,174.4 L 606.4,177.7 L 615.5,176.5 L 622.7,178.3 L 620.3,182.8 L 622.2,184.2 L 619.4,187.1 L 625.7,186.0 L 632.8,193.4 L 637.0,182.0 L 643.4,180.8 L 681.0,148.9 L 703.7,153.6 L 705.1,180.7 L 713.7,188.3 L 719.8,200.5 L 723.2,201.1 L 725.8,196.0 L 731.5,203.8 L 747.7,206.9 L 741.3,217.9 L 744.5,235.2 L 753.9,242.8 L 753.9,249.3 L 747.6,256.2 L 732.5,258.1 L 723.5,267.6 L 716.6,287.2 L 702.8,298.3 L 698.3,309.3 L 691.5,314.7 L 686.9,330.8 L 673.8,358.2 L 671.8,368.6 L 674.1,379.0 L 683.2,397.4 L 686.6,417.5 L 683.5,425.4 L 665.9,437.3 L 667.3,445.2 Z"/>
  <path id="kanton-graubuenden" d="M 317.8,726.3 L 317.8,704.4 L 316.9,702.1 L 311.3,701.1 L 305.7,693.6 L 308.5,689.2 L 307.3,684.2 L 317.7,675.7 L 315.5,671.5 L 315.9,659.1 L 321.1,657.9 L 326.5,652.4 L 331.1,655.1 L 347.2,644.3 L 348.0,633.1 L 356.1,627.8 L 363.1,637.6 L 376.7,632.3 L 375.5,627.7 L 379.1,617.3 L 386.1,614.7 L 383.1,599.9 L 386.1,597.8 L 392.1,598.9 L 391.7,596.2 L 404.6,587.4 L 421.3,588.3 L 421.0,594.6 L 427.1,597.1 L 438.2,592.0 L 462.6,588.3 L 467.4,584.7 L 475.2,568.1 L 478.8,565.2 L 478.6,556.1 L 485.5,551.0 L 492.2,550.2 L 500.3,552.8 L 504.7,563.7 L 507.9,564.9 L 520.3,558.2 L 523.1,552.5 L 527.5,551.0 L 525.8,547.5 L 541.2,549.5 L 546.4,547.0 L 558.1,532.1 L 563.8,530.8 L 567.8,525.8 L 575.7,533.6 L 580.1,531.1 L 587.7,531.3 L 599.9,535.1 L 607.2,534.3 L 609.2,536.5 L 626.1,536.9 L 642.9,541.7 L 655.5,551.6 L 657.2,550.6 L 657.9,543.8 L 663.8,543.0 L 663.6,535.5 L 672.7,528.2 L 668.6,526.1 L 668.2,523.2 L 672.1,514.3 L 676.3,511.5 L 680.0,503.5 L 686.0,502.4 L 686.9,493.0 L 698.0,489.9 L 686.1,475.7 L 668.5,447.7 L 667.3,445.2 L 669.7,442.6 L 671.7,446.8 L 674.2,442.5 L 677.8,443.8 L 678.0,442.0 L 683.3,442.2 L 695.4,437.2 L 700.8,441.2 L 703.8,447.2 L 723.3,439.2 L 729.4,444.1 L 736.2,445.5 L 741.5,440.4 L 757.7,439.0 L 760.5,443.1 L 768.9,443.9 L 768.7,447.4 L 773.6,450.2 L 784.0,450.6 L 786.7,454.0 L 802.7,453.0 L 812.8,462.0 L 825.3,468.5 L 832.7,466.2 L 835.7,462.2 L 843.0,463.3 L 844.8,465.7 L 840.5,470.2 L 848.5,475.5 L 850.0,481.8 L 840.6,497.9 L 844.1,501.5 L 842.4,505.7 L 844.9,511.8 L 842.9,514.9 L 858.7,519.9 L 869.7,527.6 L 879.3,525.9 L 882.7,528.2 L 887.5,526.0 L 889.5,531.8 L 893.1,534.1 L 899.8,536.2 L 905.1,534.5 L 920.0,549.3 L 919.7,556.9 L 935.6,558.6 L 943.5,570.7 L 951.1,566.1 L 971.2,564.9 L 977.0,562.0 L 982.2,555.4 L 999.3,555.5 L 1000.2,544.4 L 996.2,537.9 L 1003.5,524.0 L 1002.7,516.9 L 1014.3,518.3 L 1027.4,523.6 L 1029.2,520.8 L 1035.8,520.5 L 1036.4,517.2 L 1031.5,511.6 L 1032.9,505.6 L 1041.0,503.4 L 1041.7,497.2 L 1049.2,482.2 L 1060.4,481.5 L 1065.9,476.0 L 1072.1,477.8 L 1078.1,486.3 L 1084.4,490.5 L 1082.3,499.1 L 1084.2,501.4 L 1097.0,504.0 L 1111.8,513.0 L 1110.5,526.3 L 1107.1,529.2 L 1105.6,538.9 L 1101.0,544.8 L 1103.9,551.6 L 1102.5,558.0 L 1104.2,566.0 L 1100.9,569.8 L 1101.9,573.5 L 1097.5,577.0 L 1098.0,585.4 L 1093.5,594.5 L 1085.6,596.9 L 1082.6,602.0 L 1090.5,610.6 L 1091.4,622.4 L 1073.0,634.3 L 1080.9,643.1 L 1079.7,649.1 L 1074.1,651.2 L 1070.0,660.6 L 1064.7,663.6 L 1069.4,671.4 L 1069.1,681.1 L 1073.7,692.1 L 1092.9,689.4 L 1113.0,704.8 L 1109.7,710.8 L 1109.4,718.6 L 1111.2,720.2 L 1109.7,727.6 L 1105.4,733.8 L 1106.8,739.5 L 1104.0,748.1 L 1098.6,748.9 L 1095.8,755.2 L 1080.7,742.9 L 1071.1,747.3 L 1062.0,742.1 L 1051.6,740.2 L 1050.8,744.1 L 1046.0,748.0 L 1040.0,742.7 L 1033.8,745.7 L 1027.1,743.7 L 1027.1,738.6 L 1023.3,731.6 L 1015.4,727.2 L 1008.7,731.1 L 1005.3,729.1 L 1003.5,718.2 L 1010.9,707.9 L 1004.6,700.8 L 1002.0,692.9 L 995.5,696.6 L 991.7,703.9 L 981.8,698.5 L 953.2,710.9 L 942.1,707.6 L 939.8,717.8 L 941.4,724.2 L 939.2,727.4 L 931.7,728.8 L 934.7,733.5 L 933.3,735.7 L 928.7,738.3 L 924.2,746.3 L 916.5,749.4 L 920.7,754.6 L 920.9,760.1 L 919.8,765.6 L 915.8,767.4 L 918.8,773.7 L 916.1,786.3 L 921.1,794.6 L 915.6,801.9 L 915.6,807.4 L 921.9,808.6 L 924.1,816.6 L 931.1,816.2 L 932.4,820.4 L 941.4,820.3 L 944.6,816.1 L 948.6,817.5 L 953.9,814.1 L 960.0,816.1 L 962.0,824.5 L 967.9,823.8 L 970.4,828.4 L 968.3,830.4 L 968.3,840.4 L 959.8,841.1 L 953.2,846.2 L 953.9,856.2 L 944.8,861.3 L 943.0,872.4 L 948.4,884.1 L 964.9,896.7 L 965.0,901.2 L 968.5,903.0 L 968.9,909.5 L 974.7,917.3 L 963.4,928.4 L 961.2,933.8 L 955.3,937.1 L 937.0,935.2 L 928.1,941.7 L 916.4,934.3 L 920.8,930.7 L 923.8,923.4 L 921.6,912.7 L 910.9,906.1 L 895.4,901.3 L 893.6,894.7 L 897.6,891.5 L 895.6,888.1 L 897.3,884.6 L 888.4,878.7 L 895.5,867.3 L 895.7,862.0 L 890.7,861.7 L 881.7,854.5 L 877.8,848.6 L 878.8,845.5 L 868.6,847.9 L 864.4,853.2 L 856.4,844.3 L 846.5,848.6 L 839.7,855.2 L 831.1,854.1 L 824.0,856.1 L 817.6,862.9 L 802.8,868.2 L 799.7,871.7 L 794.1,870.1 L 784.8,861.6 L 781.9,862.1 L 775.7,868.2 L 777.7,873.0 L 773.3,878.5 L 777.0,880.7 L 777.1,884.5 L 773.6,888.7 L 772.0,896.7 L 769.9,897.3 L 760.1,896.1 L 755.6,890.6 L 752.1,894.8 L 736.9,900.7 L 730.0,900.0 L 726.4,895.7 L 712.2,895.2 L 703.7,888.6 L 699.7,891.1 L 686.0,876.2 L 681.8,862.0 L 676.4,854.2 L 660.9,847.3 L 660.9,842.8 L 664.4,839.7 L 658.0,820.2 L 660.7,807.8 L 660.1,795.1 L 662.9,791.6 L 661.7,785.1 L 655.9,785.4 L 655.6,782.8 L 660.9,782.5 L 662.0,768.2 L 649.1,774.7 L 644.9,780.2 L 644.7,787.7 L 638.1,793.2 L 629.6,789.5 L 627.7,784.0 L 623.7,782.6 L 620.3,777.0 L 622.5,771.3 L 617.6,767.8 L 614.5,770.9 L 595.1,771.0 L 583.0,775.2 L 578.9,783.2 L 578.6,793.7 L 580.6,796.4 L 575.5,802.4 L 567.0,805.1 L 567.9,814.1 L 581.6,824.5 L 582.4,832.0 L 579.7,836.0 L 583.4,841.8 L 579.3,848.6 L 579.8,852.2 L 582.6,857.9 L 588.6,859.3 L 590.2,866.6 L 586.8,871.1 L 590.0,876.1 L 587.6,882.6 L 582.2,886.8 L 583.6,894.2 L 572.2,905.2 L 571.4,910.7 L 568.5,912.4 L 567.6,931.9 L 555.6,934.6 L 554.7,943.4 L 547.3,947.0 L 544.1,955.7 L 544.1,964.2 L 539.1,969.7 L 526.0,969.7 L 518.1,963.6 L 510.9,951.7 L 496.9,943.6 L 493.6,932.1 L 491.4,933.1 L 489.9,930.8 L 492.0,929.4 L 492.8,916.1 L 486.6,908.5 L 482.3,897.1 L 491.4,884.8 L 486.9,877.4 L 489.2,873.1 L 487.8,870.8 L 489.1,866.5 L 497.4,863.2 L 499.3,858.4 L 500.5,848.1 L 497.0,839.6 L 500.9,833.0 L 498.1,829.7 L 503.9,825.4 L 497.7,813.8 L 496.8,807.0 L 500.4,797.0 L 496.2,788.1 L 491.0,785.2 L 485.2,787.6 L 479.1,785.0 L 475.0,774.5 L 468.7,767.5 L 466.0,754.6 L 468.8,750.9 L 467.1,745.2 L 471.8,731.0 L 475.1,724.6 L 477.9,723.9 L 477.5,720.6 L 473.4,717.5 L 473.6,713.9 L 456.6,707.0 L 446.9,712.4 L 442.1,712.4 L 442.5,703.2 L 438.0,694.6 L 437.1,699.5 L 433.0,703.0 L 425.6,700.2 L 418.0,704.6 L 418.0,710.3 L 422.3,715.9 L 419.8,720.7 L 389.9,735.8 L 385.0,735.5 L 384.0,731.0 L 371.3,735.8 L 349.4,728.1 L 344.2,730.5 L 339.4,727.6 L 334.7,731.2 L 329.4,729.5 L 326.4,725.2 L 317.8,726.3 Z"/>
</svg>
