<svg xmlns="http://www.w3.org/2000/svg" viewBox="0 0 900 650">
  <style>path { fill: rgba(0,80,160,0.10); stroke: #0050a0; stroke-width: 1; stroke-linejoin: round; }</style>
  <path id="bezirk-affoltern" d="M 238.1,426.6 L 233.8,421.3 L 233.6,407.5 L 225.7,393.2 L 230.6,394.9 L 249.0,384.8 L 251.0,375.7 L 260.8,366.4 L 263.7,357.3 L 268.0,357.1 L 264.3,349.3 L 265.7,345.3 L 272.5,346.5 L 273.2,343.8 L 278.6,341.3 L 288.2,347.9 L 291.5,355.7 L 290.7,366.9 L 296.2,378.2 L 294.3,396.6 L 296.9,398.9 L 295.9,404.6 L 292.7,407.4 L 296.8,409.2 L 299.2,406.4 L 302.6,413.1 L 305.0,411.1 L 309.2,412.6 L 317.0,425.9 L 323.8,431.4 L 330.3,443.4 L 336.9,449.6 L 333.6,451.8 L 321.6,446.8 L 313.1,446.9 L 311.5,448.9 L 309.2,447.7 L 308.4,451.3 L 297.6,449.9 L 297.5,453.0 L 292.3,455.6 L 274.8,458.6 L 273.0,454.7 L 267.9,454.5 L 256.1,445.2 L 244.9,446.7 L 240.5,434.2 L 241.8,432.3 L 238.1,426.6 Z"/>
  <path id="bezirk-andelfingen" d="M 442.4,150.2 L 442.9,164.5 L 446.3,170.9 L 437.8,168.2 L 435.5,164.7 L 434.2,166.7 L 431.0,166.0 L 430.9,168.0 L 426.4,164.1 L 424.1,166.8 L 420.0,165.5 L 411.3,159.7 L 411.6,164.9 L 406.2,169.6 L 406.9,172.6 L 401.7,174.5 L 403.0,177.9 L 395.8,184.8 L 393.3,178.0 L 387.5,174.8 L 383.4,174.8 L 380.8,178.5 L 376.7,177.9 L 377.8,180.4 L 375.4,180.9 L 377.6,187.9 L 375.1,186.9 L 375.2,188.7 L 379.2,190.9 L 373.1,195.3 L 368.7,203.0 L 365.6,202.1 L 366.2,199.1 L 360.7,194.7 L 355.9,196.4 L 348.2,192.8 L 345.2,183.8 L 341.0,180.3 L 334.9,180.3 L 335.8,177.2 L 329.5,174.5 L 331.9,165.3 L 336.9,162.7 L 335.6,153.4 L 345.1,147.3 L 345.9,139.9 L 351.2,134.1 L 345.9,110.0 L 352.7,102.3 L 356.6,108.6 L 350.3,113.2 L 357.4,114.2 L 362.3,111.2 L 365.1,105.1 L 361.4,98.2 L 353.5,93.6 L 352.0,88.5 L 356.3,81.4 L 359.3,84.2 L 363.6,82.2 L 363.0,70.9 L 372.6,68.6 L 388.7,76.4 L 388.3,83.7 L 393.0,86.8 L 393.5,94.2 L 397.5,101.6 L 411.4,110.8 L 414.7,108.8 L 417.9,111.5 L 431.7,109.9 L 433.9,113.4 L 444.1,105.3 L 450.5,105.3 L 454.0,102.6 L 457.9,92.0 L 467.6,92.5 L 467.3,102.5 L 480.0,107.1 L 478.9,117.2 L 472.1,122.5 L 472.6,130.6 L 467.2,133.8 L 466.1,143.6 L 458.0,141.7 L 458.6,136.9 L 442.6,129.9 L 438.5,130.8 L 434.0,126.2 L 433.1,134.1 L 429.7,135.0 L 429.3,138.0 L 434.8,144.4 L 433.0,147.1 L 434.5,150.6 L 442.4,150.2 Z"/>
  <path id="bezirk-buelach" d="M 322.5,280.3 L 324.6,277.1 L 317.0,266.8 L 318.6,262.1 L 316.6,260.8 L 321.9,251.4 L 315.4,244.8 L 317.2,243.2 L 313.3,234.6 L 306.5,231.7 L 307.0,228.0 L 303.7,226.6 L 299.9,228.9 L 296.6,223.9 L 287.8,223.4 L 282.8,226.5 L 279.4,219.0 L 284.7,215.7 L 286.7,207.7 L 284.9,200.0 L 288.7,196.3 L 287.5,191.9 L 289.9,189.0 L 284.2,183.5 L 274.5,179.5 L 273.6,176.6 L 267.4,179.9 L 264.8,178.0 L 272.2,172.5 L 269.5,166.8 L 277.2,162.1 L 281.8,162.8 L 287.3,159.7 L 283.8,154.2 L 271.1,157.1 L 267.4,153.8 L 265.2,142.6 L 272.1,141.3 L 278.3,132.2 L 286.4,132.9 L 295.2,130.4 L 294.6,125.3 L 299.1,125.7 L 297.8,123.9 L 300.7,116.9 L 312.9,119.6 L 312.8,123.3 L 323.9,124.8 L 326.9,131.0 L 330.6,130.6 L 333.5,134.6 L 328.9,136.5 L 327.0,144.9 L 323.0,146.3 L 322.5,149.3 L 310.8,154.8 L 311.8,157.7 L 309.8,158.8 L 313.6,161.9 L 310.6,164.3 L 317.3,165.2 L 314.5,168.6 L 322.1,182.4 L 324.4,182.3 L 330.3,174.5 L 335.8,177.2 L 334.9,180.3 L 341.0,180.3 L 345.2,183.8 L 348.2,192.8 L 355.6,196.3 L 352.6,202.6 L 354.8,203.4 L 352.0,206.1 L 355.9,205.9 L 362.8,210.3 L 359.8,213.7 L 366.1,219.9 L 370.0,218.6 L 370.6,223.9 L 380.8,224.8 L 383.8,231.9 L 378.3,236.9 L 380.7,245.0 L 378.8,248.1 L 390.9,256.3 L 394.2,262.3 L 385.0,266.6 L 383.3,278.6 L 381.2,278.5 L 381.1,284.2 L 384.0,286.5 L 382.4,288.6 L 367.6,283.2 L 367.2,280.2 L 362.7,281.9 L 361.2,285.6 L 365.2,298.0 L 361.6,299.7 L 357.1,298.3 L 349.7,302.0 L 332.7,295.8 L 333.1,288.9 L 327.0,292.4 L 321.8,288.2 L 323.9,284.4 L 322.5,280.3 Z"/>
  <path id="bezirk-dielsdorf" d="M 209.7,216.6 L 218.9,214.7 L 222.4,202.8 L 224.5,201.5 L 228.4,204.1 L 229.4,199.2 L 234.8,197.2 L 232.8,192.6 L 234.6,194.1 L 238.7,187.7 L 242.4,187.9 L 240.6,181.4 L 243.1,172.4 L 269.5,166.8 L 272.2,172.5 L 264.8,178.0 L 267.4,179.9 L 273.6,176.6 L 274.5,179.5 L 285.0,184.0 L 290.4,190.3 L 287.5,191.9 L 288.7,196.3 L 284.9,200.0 L 286.7,207.7 L 284.7,215.7 L 279.4,219.0 L 282.7,226.4 L 287.8,223.4 L 296.6,223.9 L 299.9,228.9 L 303.7,226.6 L 307.0,228.0 L 306.5,231.7 L 313.3,234.6 L 317.2,243.2 L 315.4,244.8 L 321.9,251.4 L 316.6,260.8 L 318.6,262.1 L 317.0,266.8 L 324.6,277.1 L 322.5,280.3 L 305.1,278.3 L 297.6,280.2 L 290.8,277.2 L 281.3,281.0 L 284.6,287.0 L 279.7,286.5 L 272.5,290.3 L 263.3,288.5 L 261.2,283.7 L 239.1,276.1 L 222.9,276.9 L 221.2,267.7 L 224.7,265.1 L 223.6,261.8 L 212.3,251.8 L 212.7,249.1 L 217.9,247.4 L 216.7,239.6 L 210.9,240.1 L 208.0,226.7 L 210.8,223.7 L 207.7,222.7 L 209.7,216.6 Z"/>
  <path id="bezirk-dietikon" d="M 263.7,357.3 L 252.5,364.9 L 249.4,363.2 L 241.7,365.6 L 239.5,363.5 L 241.9,355.5 L 234.5,347.8 L 237.6,341.2 L 235.1,333.7 L 236.8,329.2 L 232.5,328.6 L 230.2,323.4 L 230.3,309.9 L 222.4,309.3 L 220.3,305.0 L 212.7,305.9 L 210.5,303.2 L 213.4,304.3 L 218.1,301.1 L 221.4,302.5 L 223.3,300.0 L 221.4,296.3 L 223.8,293.3 L 221.7,291.9 L 225.0,291.8 L 227.7,288.3 L 225.1,282.5 L 218.1,280.8 L 218.4,278.1 L 231.6,277.0 L 232.9,275.0 L 239.1,276.1 L 261.2,283.7 L 263.3,288.5 L 277.1,289.0 L 272.7,290.9 L 271.8,294.2 L 273.8,296.3 L 277.1,295.4 L 277.6,301.8 L 271.6,302.5 L 270.1,306.3 L 274.7,308.9 L 269.9,308.9 L 271.3,312.5 L 267.7,314.5 L 266.2,319.2 L 260.1,320.8 L 273.0,325.8 L 269.6,331.2 L 274.2,336.3 L 279.7,337.2 L 282.9,342.6 L 275.9,342.0 L 272.5,346.5 L 265.9,345.1 L 264.3,349.3 L 268.0,357.1 L 263.7,357.3 Z"/>
  <path id="bezirk-hinwil" d="M 439.5,345.4 L 447.7,341.9 L 460.5,352.7 L 462.4,351.3 L 466.0,354.1 L 477.6,354.7 L 481.4,353.5 L 476.5,348.1 L 485.5,348.1 L 491.9,342.0 L 495.4,341.5 L 498.4,332.2 L 512.8,343.5 L 520.6,341.2 L 520.9,343.3 L 524.6,342.7 L 530.1,347.1 L 529.7,338.0 L 534.2,338.0 L 547.9,324.3 L 552.3,327.5 L 557.3,341.8 L 564.3,343.0 L 565.0,353.2 L 568.6,354.7 L 567.5,363.4 L 571.9,369.6 L 566.1,379.6 L 556.0,381.4 L 551.0,391.5 L 542.2,394.6 L 546.1,397.7 L 546.5,401.3 L 550.9,400.8 L 550.0,405.3 L 546.3,407.9 L 548.3,409.9 L 541.8,418.2 L 507.2,423.7 L 505.3,429.1 L 499.8,430.7 L 496.6,429.8 L 494.5,424.4 L 490.5,427.7 L 480.1,424.1 L 467.2,427.7 L 466.2,425.8 L 462.0,426.5 L 455.6,419.1 L 455.5,414.8 L 448.4,410.0 L 433.5,411.0 L 429.5,407.3 L 430.9,404.9 L 425.1,400.2 L 428.3,399.2 L 428.8,395.8 L 421.6,390.6 L 430.0,387.5 L 428.2,384.2 L 430.2,382.4 L 423.8,378.1 L 430.7,370.9 L 430.3,367.8 L 434.2,364.8 L 443.9,362.9 L 438.6,358.6 L 441.5,352.1 L 437.6,348.7 L 439.5,345.4 Z"/>
  <path id="bezirk-horgen" d="M 416.3,462.6 L 416.3,462.6 Z M 414.1,463.0 L 412.3,465.1 L 408.8,463.6 L 408.0,466.9 L 403.1,468.4 L 395.5,478.2 L 396.2,486.0 L 401.4,490.3 L 401.9,494.8 L 386.6,497.8 L 383.9,496.8 L 383.7,489.3 L 372.6,490.4 L 371.0,488.2 L 362.7,487.3 L 364.7,481.8 L 355.9,463.9 L 351.9,461.2 L 347.6,464.2 L 344.8,455.7 L 338.2,456.9 L 338.8,451.5 L 335.1,450.5 L 336.8,448.1 L 330.3,443.4 L 309.2,412.6 L 305.0,411.1 L 302.6,413.1 L 299.2,406.4 L 296.8,409.2 L 292.7,407.4 L 295.9,404.6 L 296.9,398.9 L 294.3,396.6 L 296.2,378.2 L 292.2,369.0 L 304.1,365.8 L 315.4,356.8 L 325.1,382.1 L 333.0,392.4 L 343.5,413.8 L 366.5,425.1 L 373.2,423.7 L 378.3,425.9 L 384.1,435.3 L 394.2,444.7 L 406.7,452.1 L 414.1,463.0 Z"/>
  <path id="bezirk-meilen" d="M 327.6,348.2 L 341.3,342.6 L 350.1,344.5 L 351.3,342.2 L 362.7,341.7 L 365.5,349.1 L 368.7,348.9 L 369.0,352.1 L 375.1,356.0 L 375.2,361.2 L 380.4,366.6 L 382.4,374.0 L 380.0,376.3 L 382.5,382.0 L 392.2,394.0 L 396.1,394.9 L 401.3,403.3 L 410.7,404.4 L 414.0,398.2 L 420.0,394.9 L 426.4,396.0 L 428.8,397.9 L 425.1,400.2 L 430.9,404.9 L 429.5,407.3 L 433.5,411.0 L 448.4,410.0 L 455.5,414.8 L 455.6,419.1 L 462.0,426.5 L 466.2,425.8 L 467.2,427.7 L 457.1,438.0 L 426.8,438.6 L 415.8,434.0 L 410.7,428.3 L 392.8,417.9 L 365.4,408.5 L 356.7,402.4 L 336.4,374.4 L 327.6,348.2 Z"/>
  <path id="bezirk-pfaeffikon" d="M 439.5,345.4 L 436.3,337.4 L 438.2,332.3 L 420.7,314.9 L 424.6,315.2 L 423.1,312.1 L 425.7,310.9 L 415.8,307.0 L 416.1,309.7 L 413.5,309.7 L 412.8,306.7 L 399.8,299.4 L 396.6,295.0 L 392.7,296.4 L 390.8,292.5 L 388.8,293.3 L 382.3,288.6 L 384.0,286.5 L 381.1,284.2 L 381.2,278.5 L 383.3,278.6 L 385.0,266.6 L 394.2,262.3 L 390.3,257.1 L 397.9,250.7 L 410.1,251.3 L 407.8,258.0 L 411.0,258.2 L 409.7,263.7 L 415.2,265.0 L 416.8,255.8 L 423.3,255.5 L 425.5,258.4 L 426.9,254.1 L 434.5,255.7 L 438.4,249.8 L 440.3,255.0 L 458.9,264.3 L 455.4,272.3 L 460.6,272.6 L 464.8,279.6 L 467.6,280.1 L 466.5,276.0 L 469.1,276.9 L 471.6,273.9 L 478.3,279.0 L 482.2,276.1 L 482.2,272.8 L 488.2,272.5 L 490.9,284.4 L 493.4,282.4 L 495.6,284.0 L 494.7,287.6 L 503.9,287.2 L 505.6,289.3 L 502.1,292.0 L 496.3,291.6 L 497.2,293.3 L 495.0,294.1 L 499.5,297.7 L 513.1,296.1 L 516.5,301.5 L 534.6,305.3 L 547.9,316.5 L 545.9,321.4 L 547.9,324.3 L 534.2,338.0 L 529.3,338.6 L 530.1,347.1 L 524.6,342.7 L 520.9,343.3 L 520.6,341.2 L 512.8,343.5 L 498.4,332.2 L 495.4,341.5 L 491.9,342.0 L 485.5,348.1 L 476.5,348.1 L 481.4,353.5 L 477.6,354.7 L 466.0,354.1 L 462.4,351.3 L 460.5,352.7 L 447.7,341.9 L 439.5,345.4 Z"/>
  <path id="bezirk-uster" d="M 439.5,345.4 L 437.6,348.7 L 441.5,352.1 L 438.6,358.6 L 443.9,362.9 L 433.0,365.4 L 430.3,367.8 L 430.7,370.9 L 426.5,373.3 L 427.9,375.1 L 423.8,378.1 L 430.2,382.4 L 428.2,384.2 L 430.0,387.5 L 421.6,390.6 L 428.8,395.8 L 422.4,396.8 L 420.0,394.9 L 414.0,398.2 L 410.7,404.4 L 407.6,402.7 L 403.6,405.0 L 382.5,382.0 L 380.0,376.3 L 382.4,374.0 L 380.4,366.6 L 375.2,361.2 L 375.1,356.0 L 369.0,352.1 L 368.7,348.9 L 365.5,349.1 L 361.5,337.2 L 356.9,335.8 L 358.1,330.4 L 351.9,330.1 L 342.3,318.0 L 344.4,316.5 L 340.8,312.8 L 338.6,314.3 L 339.2,311.6 L 343.4,307.3 L 346.2,307.8 L 346.1,300.0 L 351.9,301.9 L 352.9,299.5 L 365.2,298.0 L 361.2,285.6 L 362.7,281.9 L 367.2,280.2 L 367.6,283.2 L 390.8,292.5 L 392.7,296.4 L 396.6,295.0 L 399.8,299.4 L 412.8,306.7 L 413.5,309.7 L 416.1,309.7 L 415.8,307.0 L 424.2,309.5 L 424.6,315.2 L 420.7,314.9 L 438.2,332.3 L 436.3,337.4 L 439.5,345.4 Z"/>
  <path id="bezirk-winterthur" d="M 442.4,150.2 L 468.0,158.0 L 465.1,160.1 L 468.1,160.9 L 468.8,167.3 L 482.0,167.6 L 482.7,165.8 L 487.1,167.6 L 487.3,172.2 L 494.1,173.6 L 494.2,175.9 L 480.7,179.8 L 484.5,190.3 L 487.7,193.1 L 488.2,198.5 L 511.2,203.0 L 513.0,201.1 L 521.6,205.3 L 519.9,209.2 L 520.9,220.7 L 518.3,224.2 L 518.4,234.0 L 521.2,236.6 L 514.0,239.4 L 511.5,245.0 L 513.7,246.0 L 513.1,248.7 L 517.2,249.3 L 519.9,257.0 L 527.7,266.1 L 524.1,269.4 L 526.5,273.8 L 541.8,277.5 L 540.0,279.6 L 530.5,279.6 L 529.0,277.8 L 527.1,279.7 L 531.1,282.7 L 529.1,286.0 L 530.7,290.4 L 523.9,303.7 L 515.6,300.9 L 513.1,296.1 L 500.0,298.0 L 495.7,294.8 L 496.3,291.6 L 502.1,292.0 L 505.6,289.3 L 503.9,287.2 L 494.7,287.6 L 495.6,284.0 L 493.4,282.4 L 490.9,284.4 L 488.2,272.5 L 482.2,272.8 L 482.2,276.1 L 478.3,279.0 L 471.6,273.9 L 469.1,276.9 L 466.5,276.0 L 467.6,280.1 L 464.8,279.6 L 460.6,272.6 L 455.4,272.3 L 458.9,264.3 L 440.3,255.0 L 438.4,249.8 L 434.5,255.7 L 426.9,254.1 L 425.5,258.4 L 423.3,255.5 L 416.8,255.8 L 415.2,265.0 L 409.7,263.7 L 411.0,258.2 L 407.8,258.0 L 410.6,254.4 L 409.3,250.8 L 397.9,250.7 L 391.1,256.5 L 386.7,255.1 L 378.8,248.1 L 380.7,245.0 L 378.3,236.9 L 383.8,231.9 L 382.3,226.7 L 379.2,224.0 L 370.6,223.9 L 370.0,218.6 L 366.1,219.9 L 359.8,213.7 L 362.8,210.3 L 355.9,205.9 L 352.0,206.1 L 354.8,203.4 L 352.6,202.6 L 355.6,196.2 L 360.7,194.7 L 366.2,199.1 L 365.6,202.1 L 368.7,203.0 L 373.1,195.3 L 376.6,194.1 L 379.2,190.9 L 375.0,187.5 L 377.6,187.9 L 375.4,180.9 L 377.8,180.4 L 377.2,177.5 L 380.8,178.5 L 383.4,174.8 L 387.0,174.7 L 393.3,178.0 L 395.8,184.8 L 397.1,181.9 L 400.6,181.8 L 403.0,177.9 L 401.7,174.5 L 405.3,174.5 L 407.1,168.2 L 411.6,164.9 L 411.3,159.7 L 420.0,165.5 L 424.1,166.8 L 426.4,164.1 L 430.9,168.0 L 431.0,166.0 L 434.2,166.7 L 435.5,164.7 L 437.8,168.2 L 446.3,170.9 L 442.9,164.5 L 442.4,150.2 Z"/>
  <path id="bezirk-zuerich" d="M 292.2,369.0 L 289.0,348.9 L 282.7,343.4 L 279.7,337.2 L 274.2,336.3 L 269.6,331.2 L 273.0,325.8 L 260.1,320.8 L 266.2,319.2 L 267.7,314.5 L 271.3,312.5 L 269.9,308.9 L 274.7,308.9 L 270.1,306.3 L 271.6,302.5 L 277.7,301.5 L 277.1,295.4 L 272.2,295.1 L 272.4,291.4 L 277.5,287.2 L 284.6,287.0 L 282.1,280.0 L 291.5,277.1 L 297.6,280.2 L 305.1,278.3 L 322.5,280.3 L 323.9,284.4 L 321.8,288.2 L 327.0,292.4 L 333.1,288.9 L 332.7,295.8 L 346.8,299.9 L 344.8,303.2 L 346.2,307.8 L 341.6,308.3 L 338.6,314.3 L 340.8,312.8 L 344.4,316.5 L 342.3,318.0 L 351.9,330.1 L 358.1,330.4 L 356.9,335.8 L 361.5,337.2 L 363.2,341.3 L 351.3,342.2 L 350.1,344.5 L 340.4,342.8 L 328.4,347.6 L 304.1,365.8 L 292.2,369.0 Z"/>
  <path id="kanton-glarus" d="M 543.1,690.2 L 550.8,685.7 L 559.3,684.7 L 554.7,674.9 L 558.8,663.0 L 564.2,658.1 L 554.9,655.7 L 551.5,650.4 L 549.1,652.3 L 541.3,640.1 L 546.3,638.2 L 546.7,635.9 L 544.5,636.8 L 539.1,627.9 L 533.5,624.7 L 529.3,618.9 L 528.7,612.2 L 518.5,607.0 L 524.7,604.1 L 523.9,595.3 L 535.4,595.2 L 550.5,586.3 L 552.2,577.3 L 558.4,568.7 L 557.9,564.7 L 566.7,557.1 L 553.9,552.5 L 557.2,545.5 L 564.0,542.0 L 562.8,538.7 L 565.4,533.6 L 560.4,528.0 L 562.8,521.2 L 561.7,516.3 L 583.9,486.3 L 620.6,521.8 L 639.2,519.0 L 659.6,520.0 L 690.9,526.7 L 688.8,547.7 L 691.7,552.9 L 690.3,558.2 L 692.1,567.6 L 687.2,578.3 L 682.0,583.5 L 669.7,588.0 L 660.8,594.5 L 676.8,604.4 L 682.4,602.8 L 685.5,605.1 L 701.6,597.2 L 709.5,599.8 L 717.9,606.7 L 725.7,629.8 L 723.2,632.2 L 722.1,640.1 L 724.0,645.5 L 721.6,653.1 L 723.5,659.2 L 718.1,662.4 L 717.8,669.7 L 719.5,674.6 L 726.0,678.4 L 727.3,683.8 L 725.2,693.2 L 720.1,699.7 L 712.2,701.7 L 699.2,719.7 L 689.9,725.1 L 669.5,722.4 L 671.7,727.1 L 665.7,729.3 L 662.3,736.8 L 645.3,746.0 L 641.5,744.3 L 635.8,729.6 L 618.2,726.1 L 607.0,734.0 L 607.3,746.1 L 602.5,750.2 L 600.6,758.1 L 590.9,773.6 L 585.9,777.4 L 553.5,782.4 L 539.0,789.3 L 530.7,785.9 L 531.2,777.5 L 526.5,778.3 L 521.8,775.0 L 509.3,776.1 L 511.9,763.1 L 505.9,752.7 L 520.1,746.6 L 527.4,737.8 L 532.9,737.9 L 555.1,726.0 L 553.6,705.6 L 549.8,704.0 L 543.1,690.2 Z"/>
  <path id="kanton-luzern" d="M 27.3,796.8 L 18.2,794.2 L 12.0,795.2 L -2.5,801.0 L -8.2,806.3 L -14.1,804.6 L -18.3,798.2 L -26.7,793.5 L -30.9,782.2 L -41.4,773.2 L -71.4,756.7 L -76.9,746.0 L -75.8,734.8 L -82.9,729.1 L -83.3,719.4 L -73.7,714.5 L -71.8,708.6 L -68.6,706.4 L -69.5,697.5 L -77.2,694.3 L -73.9,686.6 L -59.5,678.4 L -52.1,679.9 L -49.2,678.4 L -45.6,668.8 L -39.7,665.6 L -39.3,656.7 L -31.5,651.4 L -32.6,644.2 L -27.6,641.0 L -30.0,630.7 L -25.4,623.2 L -29.0,620.3 L -38.9,622.6 L -44.8,617.5 L -57.0,620.9 L -59.8,615.5 L -57.8,611.5 L -61.1,608.1 L -62.5,601.7 L -67.5,599.0 L -68.7,593.4 L -72.7,593.1 L -77.5,586.1 L -77.7,582.4 L -73.2,576.4 L -74.5,573.7 L -71.5,569.2 L -68.7,554.7 L -70.0,549.3 L -73.4,547.4 L -72.6,538.1 L -76.6,536.1 L -77.2,530.0 L -66.8,523.5 L -63.5,515.5 L -71.8,500.9 L -71.6,492.0 L -67.8,486.8 L -71.9,479.1 L -81.5,471.2 L -81.3,466.5 L -87.6,457.6 L -88.9,451.5 L -94.9,446.3 L -94.4,439.0 L -91.7,436.8 L -85.2,439.4 L -77.0,435.5 L -52.9,430.2 L -38.6,436.6 L -22.1,422.1 L -28.1,412.7 L -28.7,405.4 L -7.6,404.4 L -2.7,400.0 L 9.8,417.8 L 9.1,429.9 L 12.9,431.6 L 16.9,432.9 L 36.6,428.0 L 33.1,422.9 L 34.0,419.9 L 42.2,421.3 L 51.3,415.0 L 57.4,417.1 L 63.3,429.7 L 72.2,432.2 L 78.7,427.8 L 93.1,426.2 L 101.6,422.5 L 105.0,427.4 L 102.2,433.0 L 98.6,431.8 L 90.5,435.1 L 94.0,436.4 L 92.7,438.8 L 96.1,442.6 L 101.1,443.4 L 102.2,447.9 L 107.3,447.5 L 112.7,444.3 L 119.1,444.6 L 118.7,431.2 L 120.6,427.4 L 127.6,423.6 L 132.7,406.5 L 140.8,407.4 L 142.0,400.6 L 144.4,400.3 L 145.6,396.3 L 150.2,395.5 L 152.0,399.2 L 161.8,399.5 L 174.3,408.1 L 171.0,412.6 L 171.9,417.8 L 181.0,428.9 L 186.2,447.9 L 185.5,452.9 L 188.8,453.6 L 191.5,466.6 L 197.3,476.7 L 197.1,484.3 L 201.8,493.9 L 208.1,500.2 L 210.3,508.7 L 217.6,511.1 L 218.4,514.2 L 235.3,515.6 L 239.4,513.1 L 242.6,527.7 L 249.9,527.0 L 261.0,520.8 L 263.7,534.7 L 270.5,532.0 L 278.9,524.6 L 286.7,534.7 L 286.3,545.5 L 276.5,540.8 L 274.9,535.8 L 269.6,536.9 L 261.3,534.1 L 260.5,536.6 L 255.5,537.1 L 254.0,540.7 L 246.3,542.6 L 238.0,551.0 L 236.4,562.1 L 225.7,570.0 L 226.8,576.7 L 231.8,578.2 L 249.8,573.4 L 256.3,575.3 L 258.9,579.2 L 272.9,587.8 L 290.7,606.1 L 298.2,608.5 L 296.7,621.0 L 290.8,625.2 L 275.0,629.5 L 271.8,628.7 L 272.4,618.5 L 248.5,612.1 L 247.6,627.3 L 230.1,625.2 L 223.9,627.3 L 222.2,624.8 L 222.9,611.7 L 214.0,609.9 L 194.2,634.7 L 185.1,626.3 L 171.6,627.3 L 167.7,630.3 L 154.2,627.4 L 141.7,637.1 L 138.0,632.5 L 132.4,631.9 L 126.6,641.1 L 132.9,650.0 L 117.9,652.5 L 108.8,648.6 L 91.0,657.0 L 87.1,660.1 L 87.7,663.7 L 95.7,675.0 L 78.2,688.3 L 65.5,711.2 L 62.5,710.3 L 61.8,707.4 L 63.0,699.5 L 55.0,696.6 L 49.8,701.3 L 48.0,706.8 L 40.5,709.6 L 38.9,715.9 L 41.6,727.3 L 38.3,732.7 L 39.1,736.3 L 37.7,739.3 L 33.4,740.3 L 32.5,746.9 L 26.5,751.1 L 24.5,757.1 L 37.4,779.9 L 37.1,784.0 L 31.9,787.5 L 32.6,792.1 L 27.3,796.8 Z"/>
  <path id="kanton-schaffhausen" d="M 327.0,144.9 L 338.3,147.5 L 344.2,139.5 L 345.9,139.9 L 345.5,146.4 L 336.5,151.9 L 335.1,156.8 L 336.8,163.0 L 332.1,165.0 L 329.5,174.7 L 322.9,182.7 L 314.5,168.6 L 317.3,165.2 L 310.6,164.3 L 313.6,161.9 L 309.8,158.8 L 311.8,157.7 L 310.8,154.8 L 327.0,144.9 Z M 508.3,100.3 L 502.4,99.4 L 498.2,104.3 L 493.2,103.5 L 491.0,101.9 L 496.2,95.8 L 488.4,92.6 L 482.5,84.8 L 467.3,81.6 L 462.2,84.0 L 460.8,80.2 L 462.8,73.5 L 464.6,70.7 L 470.4,69.5 L 463.1,66.4 L 463.1,61.9 L 461.0,60.8 L 446.7,58.7 L 448.8,53.6 L 447.2,48.9 L 449.9,48.9 L 450.8,46.0 L 453.4,46.8 L 455.7,42.3 L 464.1,42.4 L 462.5,36.5 L 468.4,33.5 L 469.5,39.2 L 471.6,39.8 L 467.3,44.5 L 471.9,45.1 L 475.3,50.0 L 479.8,49.9 L 475.6,53.9 L 479.3,55.4 L 484.0,52.5 L 489.6,54.4 L 492.6,61.5 L 506.8,60.9 L 505.0,62.7 L 508.8,66.9 L 507.7,68.8 L 501.3,70.3 L 503.0,67.1 L 501.2,65.5 L 499.7,67.2 L 498.2,65.2 L 494.4,66.1 L 494.0,68.5 L 498.0,70.6 L 493.8,78.8 L 499.7,80.0 L 507.2,88.1 L 508.3,100.3 Z M 385.2,75.6 L 373.5,68.7 L 363.0,70.9 L 363.6,82.2 L 359.3,84.2 L 356.3,81.4 L 352.0,89.3 L 352.2,86.5 L 347.2,86.1 L 344.9,90.5 L 335.4,95.1 L 327.9,92.1 L 327.3,88.2 L 321.9,88.7 L 313.5,92.2 L 314.5,98.9 L 310.3,96.8 L 309.7,93.8 L 306.0,95.9 L 310.4,104.6 L 308.8,107.7 L 286.4,106.8 L 285.9,110.7 L 283.0,108.3 L 280.3,109.1 L 276.6,104.2 L 274.7,105.7 L 277.5,108.4 L 273.5,110.5 L 277.6,112.5 L 274.9,113.6 L 271.2,111.1 L 269.3,105.6 L 270.6,98.5 L 265.5,102.1 L 258.5,101.2 L 246.0,90.8 L 239.3,91.2 L 236.0,83.3 L 244.3,77.1 L 235.0,65.8 L 242.2,56.0 L 256.5,49.8 L 258.6,45.7 L 264.2,46.2 L 265.4,40.0 L 262.8,39.4 L 261.7,32.0 L 264.7,29.9 L 265.4,24.1 L 270.9,21.2 L 274.3,13.3 L 281.6,6.9 L 283.9,5.5 L 288.3,7.3 L 296.3,3.1 L 302.1,7.6 L 305.7,1.6 L 321.1,-3.7 L 327.1,-0.5 L 326.8,1.7 L 335.2,-1.3 L 333.8,-7.7 L 326.3,-10.1 L 326.9,-19.1 L 329.8,-22.8 L 332.8,-20.9 L 334.1,-15.7 L 341.3,-18.2 L 344.2,-15.0 L 348.9,-18.5 L 359.2,-14.7 L 361.3,-11.9 L 357.3,-2.6 L 362.0,2.2 L 359.7,9.9 L 364.8,16.7 L 366.8,17.5 L 374.2,12.6 L 379.1,5.3 L 376.3,4.8 L 377.4,-2.0 L 374.9,-7.7 L 377.2,-14.8 L 381.4,-16.4 L 383.4,-13.1 L 381.7,-9.4 L 395.4,-5.3 L 396.7,2.2 L 399.8,5.2 L 396.9,7.5 L 399.9,17.4 L 403.6,19.5 L 414.6,11.7 L 422.3,14.2 L 423.3,17.7 L 430.3,22.5 L 429.4,26.9 L 419.5,28.3 L 414.9,33.2 L 412.9,40.0 L 416.9,46.8 L 427.5,51.1 L 422.5,63.8 L 422.7,70.0 L 416.8,71.7 L 407.2,52.0 L 398.5,57.3 L 394.8,55.7 L 395.6,54.2 L 389.8,55.4 L 385.9,53.5 L 392.8,65.7 L 388.1,70.5 L 382.4,71.1 L 385.2,75.6 Z"/>
  <path id="kanton-schwyz" d="M 543.1,690.2 L 526.9,700.2 L 523.5,699.9 L 519.8,703.8 L 515.0,704.3 L 507.7,710.2 L 500.4,710.4 L 495.6,718.0 L 492.3,713.4 L 492.9,695.9 L 485.5,700.0 L 480.7,690.6 L 482.0,681.7 L 480.1,677.5 L 470.7,672.9 L 457.4,681.8 L 451.7,679.6 L 447.6,672.9 L 428.2,680.2 L 416.7,691.3 L 410.9,692.4 L 405.6,686.7 L 406.3,678.2 L 402.4,668.5 L 388.6,670.8 L 364.3,666.2 L 362.2,664.0 L 350.9,664.5 L 349.1,645.8 L 350.8,640.1 L 346.7,633.8 L 338.2,631.2 L 315.1,642.3 L 288.4,644.8 L 270.1,638.5 L 271.8,628.7 L 280.5,628.5 L 295.6,622.3 L 298.2,608.5 L 290.7,606.1 L 272.9,587.8 L 258.9,579.2 L 256.3,575.3 L 249.8,573.4 L 231.8,578.2 L 226.8,576.7 L 225.8,569.4 L 236.4,562.1 L 237.7,551.5 L 244.2,544.2 L 254.0,540.7 L 254.0,538.2 L 260.5,536.6 L 261.3,534.1 L 269.6,536.9 L 274.9,535.8 L 276.5,540.8 L 303.1,553.8 L 316.0,550.1 L 326.6,550.7 L 326.6,559.4 L 328.4,560.9 L 342.6,556.6 L 344.8,553.2 L 352.7,552.1 L 353.4,550.1 L 372.4,550.2 L 383.6,536.2 L 383.1,533.9 L 390.1,533.1 L 389.5,530.3 L 395.9,525.6 L 399.2,518.0 L 397.6,512.0 L 401.0,507.3 L 407.1,504.8 L 401.4,490.3 L 396.2,486.0 L 395.5,478.2 L 403.1,468.4 L 408.0,466.9 L 408.8,463.6 L 412.3,465.1 L 430.0,456.1 L 460.7,447.3 L 469.5,449.3 L 479.6,457.1 L 488.4,458.9 L 543.9,451.0 L 562.7,451.5 L 565.7,455.2 L 562.8,455.9 L 560.5,466.9 L 556.0,465.8 L 558.6,481.9 L 563.5,482.4 L 565.5,479.6 L 570.7,479.1 L 583.4,486.9 L 561.7,516.3 L 562.8,521.2 L 560.4,528.0 L 565.4,533.6 L 562.8,538.7 L 564.0,542.0 L 557.2,545.5 L 553.9,552.5 L 566.7,557.1 L 557.9,564.7 L 558.4,568.7 L 552.2,577.3 L 550.5,586.3 L 535.4,595.2 L 523.9,595.3 L 524.7,604.1 L 518.5,607.0 L 528.7,612.2 L 529.3,618.9 L 533.5,624.7 L 539.1,627.9 L 544.5,636.8 L 546.7,635.9 L 546.3,638.2 L 541.3,640.1 L 549.1,652.3 L 551.5,650.4 L 554.9,655.7 L 564.2,658.1 L 558.8,663.0 L 554.7,674.9 L 559.3,684.7 L 550.8,685.7 L 543.1,690.2 Z"/>
  <path id="kanton-stgallen" d="M 786.1,215.2 L 789.2,216.2 L 788.6,218.2 L 786.1,215.2 Z M 856.9,584.4 L 875.1,611.9 L 877.7,619.5 L 897.4,644.7 L 882.7,648.9 L 881.6,661.5 L 873.6,663.1 L 867.3,675.9 L 863.1,677.7 L 858.1,689.7 L 858.5,693.6 L 864.0,696.3 L 852.0,706.3 L 853.4,713.0 L 851.7,717.3 L 844.4,717.4 L 843.4,726.5 L 841.3,727.9 L 832.3,718.6 L 824.5,714.5 L 802.3,708.1 L 779.9,707.6 L 777.3,704.5 L 767.6,705.7 L 760.6,701.5 L 751.0,700.5 L 747.0,702.1 L 741.4,700.3 L 735.6,703.6 L 725.2,693.1 L 727.3,684.5 L 726.0,678.4 L 719.5,674.6 L 717.8,669.7 L 718.1,662.4 L 723.5,659.2 L 721.6,653.1 L 724.0,645.5 L 722.1,640.1 L 723.2,632.2 L 725.7,629.8 L 717.9,606.7 L 709.5,599.8 L 701.6,597.2 L 685.5,605.1 L 682.4,602.8 L 676.8,604.4 L 660.8,594.5 L 669.7,588.0 L 682.0,583.5 L 687.2,578.3 L 692.1,567.6 L 690.3,558.2 L 691.7,552.9 L 688.8,547.7 L 690.9,526.7 L 659.6,520.0 L 639.2,519.0 L 619.4,521.2 L 577.7,482.1 L 569.2,478.8 L 563.5,482.4 L 558.6,481.9 L 556.0,465.8 L 560.5,466.9 L 562.8,455.9 L 565.7,455.2 L 562.7,451.5 L 543.9,451.0 L 488.4,458.9 L 478.9,456.8 L 470.0,450.0 L 462.0,434.0 L 466.1,427.9 L 480.1,424.1 L 490.5,427.7 L 494.5,424.4 L 496.6,429.8 L 499.8,430.7 L 505.3,429.1 L 507.2,423.7 L 541.8,418.2 L 548.3,409.9 L 546.3,407.9 L 550.0,405.3 L 550.9,400.8 L 546.5,401.3 L 546.1,397.7 L 542.2,394.6 L 551.0,391.5 L 556.0,381.4 L 566.1,379.6 L 571.9,369.6 L 567.5,363.4 L 568.6,354.7 L 565.0,353.2 L 564.3,343.0 L 557.3,341.8 L 548.6,322.5 L 554.5,319.8 L 555.9,315.8 L 560.9,316.7 L 566.5,305.5 L 564.5,301.4 L 567.0,296.4 L 574.1,295.9 L 577.3,287.0 L 573.4,281.1 L 580.6,279.2 L 580.0,276.8 L 587.6,278.1 L 593.5,271.5 L 596.0,275.1 L 601.0,273.4 L 600.4,276.5 L 602.9,275.1 L 602.8,271.7 L 606.8,272.3 L 608.2,269.4 L 614.9,270.3 L 613.8,268.3 L 617.0,267.8 L 609.9,262.5 L 596.5,258.7 L 597.8,251.4 L 585.4,246.9 L 587.6,244.5 L 582.7,239.8 L 587.9,232.7 L 597.1,233.8 L 605.1,228.1 L 613.2,234.8 L 617.0,230.7 L 618.1,232.1 L 628.5,228.5 L 632.8,238.5 L 637.9,236.2 L 646.2,237.2 L 649.4,241.0 L 657.1,236.3 L 663.1,237.2 L 671.1,234.5 L 675.1,227.5 L 674.0,224.7 L 678.9,221.5 L 681.5,229.1 L 685.7,226.8 L 686.8,231.6 L 690.3,230.2 L 692.8,233.6 L 702.5,233.3 L 700.5,238.8 L 704.4,241.6 L 707.4,237.7 L 711.2,237.1 L 722.7,240.5 L 726.5,245.2 L 733.5,245.1 L 742.5,241.1 L 743.9,238.3 L 754.1,243.0 L 767.0,232.1 L 764.9,224.3 L 759.6,226.4 L 759.7,220.4 L 764.5,217.0 L 756.8,212.1 L 756.3,214.8 L 749.9,219.3 L 739.5,219.1 L 736.7,215.3 L 740.6,214.1 L 743.3,216.7 L 742.9,213.5 L 746.0,209.8 L 744.6,208.1 L 756.4,203.5 L 762.3,206.9 L 762.0,202.6 L 765.6,199.3 L 771.2,201.9 L 777.1,201.5 L 777.8,199.5 L 777.5,204.7 L 780.4,208.8 L 787.6,209.0 L 786.6,212.4 L 781.4,215.1 L 783.0,215.7 L 781.6,218.3 L 777.1,219.2 L 776.2,223.6 L 779.1,221.7 L 787.3,224.0 L 788.3,222.0 L 797.8,224.4 L 797.9,228.4 L 794.6,231.0 L 797.1,232.3 L 793.5,236.4 L 801.8,234.9 L 801.0,236.3 L 811.2,244.8 L 816.7,229.5 L 820.8,226.7 L 825.3,227.8 L 827.5,223.5 L 840.2,215.6 L 875.0,184.8 L 905.1,191.1 L 907.0,227.7 L 918.3,238.0 L 926.4,254.4 L 931.0,255.0 L 934.3,248.3 L 941.9,258.8 L 963.3,263.0 L 954.8,277.9 L 958.1,287.3 L 959.0,301.2 L 971.7,311.7 L 971.2,320.8 L 962.0,330.0 L 943.2,332.1 L 931.5,344.6 L 922.2,371.2 L 903.7,386.5 L 897.8,401.2 L 888.9,408.5 L 882.8,430.2 L 873.0,446.6 L 865.0,468.2 L 862.8,481.1 L 865.5,493.9 L 876.0,513.7 L 882.4,545.6 L 878.8,557.2 L 854.9,573.7 L 856.9,584.4 Z"/>
</svg>